<svg width="38" height="50" viewBox="0 0 38 50" fill="none" xmlns="http://www.w3.org/2000/svg">
<path d="M35.4585 16.809C38.288 15.6672 38.5198 11.7507 35.8447 10.2832L17.9127 0.446104C16.3523 -0.409942 14.4009 -0.00356851 13.3119 1.40424L0.756661 17.6349C-0.578778 19.3613 -0.0926475 21.8682 1.79127 22.9703L4.32011 24.4497C5.77362 25.3 6.4481 27.0408 5.94688 28.6485L0.966298 44.6237C-0.13158 48.1451 4.12759 50.8582 6.85492 48.3748L26.1631 30.7932C27.6608 29.4294 27.406 27.0043 25.6576 25.9815C23.5047 24.722 23.7371 21.5387 26.0502 20.6053L35.4585 16.809Z" fill="url(#paint0_linear_1_818)"/>
<defs>
<linearGradient id="paint0_linear_1_818" x1="38.3721" y1="11.5181" x2="11.6684" y2="-1.23546" gradientUnits="userSpaceOnUse">
<stop stop-color="#FF6432"/>
<stop offset="1" stop-color="#FFA228"/>
</linearGradient>
</defs>
</svg>
